<svg width="320px" height="320px" enable-background="new 0 0 48 48" xmlns="http://www.w3.org/2000/svg" viewBox="0 0 24 24"><path d="M17.669,15.284a5.336,5.336,0,0,0,3.857-1.57A6.349,6.349,0,0,0,22.987,9.33a.516.516,0,0,0-.514-.479h-3.9V7.705a.516.516,0,0,0-.515-.515H1.521A.516.516,0,0,0,1,7.705v3.679A8.877,8.877,0,0,0,5.69,19.215H2.9a1.89,1.89,0,1,0,0,3.779H17.5a1.89,1.89,0,1,0,0-3.779h-3.6A8.876,8.876,0,0,0,17.669,15.284Zm.908-3.9v-1.5h3.378a5.081,5.081,0,0,1-1.189,3.136,4.142,4.142,0,0,1-2.659,1.2A8.879,8.879,0,0,0,18.577,11.384ZM17.5,20.246a.859.859,0,0,1,0,1.718H2.9a.859.859,0,0,1,0-1.718ZM9.791,19.215a7.8,7.8,0,0,1-7.755-7.831V8.221H17.547v3.163A7.8,7.8,0,0,1,9.791,19.215Z"/><path d="M9.936,6.5a.516.516,0,0,0,.515-.516V1.521a.516.516,0,0,0-1.031,0V5.987A.516.516,0,0,0,9.936,6.5Z"/><path d="M6.3,6.5a.516.516,0,0,0,.516-.516V2.9a.516.516,0,0,0-1.031,0V5.987A.516.516,0,0,0,6.3,6.5Z"/><path d="M13.572,6.5a.516.516,0,0,0,.515-.516V2.9a.516.516,0,0,0-1.031,0V5.987A.516.516,0,0,0,13.572,6.5Z"/></svg>