<?xml version="1.0" encoding="utf-8"?>
<!-- Generator: Adobe Illustrator 22.0.0, SVG Export Plug-In . SVG Version: 6.00 Build 0)  -->
<svg width="30px" height="30px" enable-background="new 0 0 48 48" version="1.1" id="Layer_1" xmlns="http://www.w3.org/2000/svg" xmlns:xlink="http://www.w3.org/1999/xlink" x="0px" y="0px"
	 viewBox="0 0 500 500" style="enable-background:new 0 0 500 500;" xml:space="preserve">
<style type="text/css">
	.st0{fill:#FDDF7F;}
	.st1{fill:#ECF4F7;}
	.st2{fill:#83E1E5;}
	.st3{fill:#1C1D21;}
	.st4{fill:#AAB1BA;}
</style>
<g>
	<circle class="st2" cx="250" cy="285.934" r="209.066"/>
</g>
<path class="st3" d="M234.167,15.833c0-2.761,2.239-5,5-5H245V5c0-2.761,2.239-5,5-5s5,2.239,5,5v5.833h5.833c2.761,0,5,2.239,5,5
	s-2.239,5-5,5H255v5.833c0,2.761-2.239,5-5,5s-5-2.239-5-5v-5.833h-5.833C236.406,20.833,234.167,18.594,234.167,15.833z
	 M112.591,68.333h5.833v5.833c0,2.761,2.239,5,5,5s5-2.239,5-5v-5.833h5.833c2.761,0,5-2.239,5-5s-2.239-5-5-5h-5.833V52.5
	c0-2.761-2.239-5-5-5s-5,2.239-5,5v5.833h-5.833c-2.761,0-5,2.239-5,5S109.83,68.333,112.591,68.333z M365.744,68.333h5.833v5.833
	c0,2.761,2.239,5,5,5s5-2.239,5-5v-5.833h5.833c2.761,0,5-2.239,5-5s-2.239-5-5-5h-5.833V52.5c0-2.761-2.239-5-5-5s-5,2.239-5,5
	v5.833h-5.833c-2.761,0-5,2.239-5,5S362.982,68.333,365.744,68.333z M425.166,121.867c0.984,1.05,2.314,1.58,3.648,1.58
	c1.226,0,2.454-0.448,3.419-1.353c2.015-1.889,2.116-5.053,0.228-7.067c-1.853-1.976-3.765-3.951-5.684-5.87
	c-1.953-1.952-5.118-1.952-7.071,0c-1.953,1.953-1.953,5.119,0,7.071C421.549,118.072,423.386,119.969,425.166,121.867z
	 M444.474,128.804c-1.738-2.147-4.887-2.477-7.032-0.738c-2.146,1.738-2.477,4.886-0.738,7.032
	c77.439,95.609,70.131,233.413-16.998,320.542c-1.953,1.953-1.953,5.119,0,7.071c0.977,0.976,2.256,1.464,3.536,1.464
	s2.559-0.488,3.536-1.464c43.96-43.96,69.856-102.339,72.917-164.381C502.734,236.727,483.123,176.521,444.474,128.804z
	 M80.295,455.641c-1.299-1.3-2.581-2.611-3.845-3.932c-1.908-1.997-5.073-2.068-7.069-0.16c-1.997,1.908-2.068,5.073-0.16,7.069
	c1.314,1.376,2.649,2.74,4.001,4.092c0.977,0.977,2.256,1.465,3.536,1.465c1.279,0,2.559-0.488,3.535-1.464
	C82.247,460.759,82.247,457.593,80.295,455.641z M60.89,446.722c1.121,0,2.249-0.375,3.181-1.145c2.129-1.758,2.43-4.91,0.672-7.039
	c-79.096-95.785-72.41-234.348,15.552-322.31c1.953-1.953,1.953-5.119,0-7.071c-1.953-1.952-5.118-1.952-7.071,0
	C28.97,153.411,3.055,212.188,0.253,274.663c-2.785,62.07,17.38,122.53,56.779,170.242C58.021,446.103,59.45,446.722,60.89,446.722z
	 M115.458,204.333c-1.708-0.739-3.406-1.492-5.09-2.259c-2.515-1.142-5.478-0.033-6.622,2.48c-1.144,2.514-0.033,5.479,2.48,6.622
	c1.741,0.792,3.494,1.569,5.26,2.334c0.647,0.28,1.32,0.413,1.983,0.413c1.933,0,3.774-1.128,4.591-3.016
	C119.157,208.374,117.992,205.43,115.458,204.333z M420.375,495c0,2.761-2.239,5-5,5H84.625c-2.761,0-5-2.239-5-5s2.239-5,5-5
	H185.04c-32.248-10.225-61.799-28.09-86.408-52.698c-40.432-40.432-62.698-94.188-62.698-151.368s22.267-110.936,62.698-151.368
	C139.064,94.135,192.821,71.868,250,71.868s110.936,22.267,151.368,62.698c40.432,40.432,62.698,94.188,62.698,151.368
	s-22.267,110.936-62.698,151.368C376.759,461.91,347.208,479.775,314.96,490h100.415C418.136,490,420.375,492.239,420.375,495z
	 M171.234,97.688c24.915,10.46,51.358,15.761,78.766,15.761s53.851-5.301,78.766-15.761c-24.249-10.184-50.86-15.82-78.766-15.82
	S195.483,87.504,171.234,97.688z M113.65,134.245c40.231,23.441,87.216,35.808,136.35,35.808s96.119-12.367,136.35-35.808
	c-13.637-12.271-28.933-22.728-45.503-31.001c-28.519,13.396-59.065,20.206-90.847,20.206s-62.328-6.81-90.847-20.206
	C142.583,111.517,127.287,121.974,113.65,134.245z M52.251,235.479c54.402,33.882,124.453,52.518,197.749,52.518
	s143.347-18.636,197.749-52.518c-3.973-15.565-9.748-30.414-17.075-44.325C380.147,223.523,316.235,241.297,250,241.297
	c-42.229,0-82.823-6.962-120.655-20.693c-2.596-0.942-3.936-3.81-2.994-6.406c0.942-2.596,3.809-3.935,6.406-2.994
	c36.735,13.333,76.182,20.094,117.243,20.094c64.567,0,126.776-17.339,175.785-48.896c-8.869-15.001-19.594-28.779-31.871-41.004
	c-42.315,25.298-91.978,38.655-143.914,38.655s-101.599-13.356-143.914-38.655c-12.274,12.222-22.997,25.997-31.864,40.993
	c6.508,4.189,13.293,8.182,20.261,11.875c2.44,1.293,3.37,4.319,2.077,6.759c-0.897,1.694-2.63,2.66-4.422,2.66
	c-0.79,0-1.591-0.188-2.337-0.583c-7.029-3.725-13.882-7.744-20.466-11.962C62.003,205.055,56.226,219.909,52.251,235.479z
	 M45.941,285.385c54.815,37.818,127.155,58.631,204.059,58.631s149.244-20.813,204.059-58.631
	c-0.036-13.547-1.402-26.787-3.968-39.599C394.553,279.494,323.827,297.997,250,297.997s-144.553-18.503-200.091-52.211
	C47.343,258.598,45.977,271.838,45.941,285.385z M53.087,339.518c52.969,37.591,122.808,58.284,196.913,58.284
	s143.944-20.693,196.913-58.284c3.666-13.457,5.989-27.461,6.808-41.863c-55.685,36.398-127.579,56.36-203.721,56.36
	s-148.036-19.962-203.721-56.36C47.098,312.057,49.421,326.061,53.087,339.518z M250,450.161
	c59.116,0,115.236-14.109,162.391-40.799c12.501-16.408,22.577-34.755,29.686-54.51C388.898,389.078,321.322,407.802,250,407.802
	s-138.898-18.723-192.077-52.949c7.11,19.754,17.185,38.102,29.686,54.51C134.764,436.052,190.884,450.161,250,450.161z M250,490
	c56.539,0,107.777-23.118,144.771-60.392c-43.564,20.049-93.079,30.553-144.771,30.553s-101.207-10.504-144.771-30.553
	C142.223,466.882,193.461,490,250,490z M444.333,490h-8c-2.761,0-5,2.239-5,5s2.239,5,5,5h8c2.761,0,5-2.239,5-5
	S447.095,490,444.333,490z M63.667,490h-8c-2.761,0-5,2.239-5,5s2.239,5,5,5h8c2.761,0,5-2.239,5-5S66.428,490,63.667,490z"/>
</svg>
